Dinish-Regular.ufo
<glyph name="percent" format="2">
  <advance width="848"/>
  <unicode hex="0025"/>
  <outline>
    <contour>
      <point x="201" y="0" type="line"/>
      <point x="265" y="0" type="line"/>
      <point x="647" y="707" type="line"/>
      <point x="583" y="707" type="line"/>
    </contour>
    <contour>
      <point x="166" y="273" type="curve" smooth="yes"/>
      <point x="263.339" y="273"/>
      <point x="291" y="338.36"/>
      <point x="291" y="425" type="curve" smooth="yes"/>
      <point x="291" y="567" type="line" smooth="yes"/>
      <point x="291" y="653.27"/>
      <point x="260.911" y="714"/>
      <point x="166" y="714" type="curve" smooth="yes"/>
      <point x="73.0861" y="714"/>
      <point x="42" y="650.911"/>
      <point x="42" y="567" type="curve" smooth="yes"/>
      <point x="42" y="425" type="line" smooth="yes"/>
      <point x="42" y="339.217"/>
      <point x="69.3061" y="273"/>
    </contour>
    <contour>
      <point x="166" y="333" type="curve" smooth="yes"/>
      <point x="111.572" y="333"/>
      <point x="112" y="387.255"/>
      <point x="112" y="428" type="curve" smooth="yes"/>
      <point x="112" y="561" type="line" smooth="yes"/>
      <point x="112" y="601.933"/>
      <point x="111.862" y="653"/>
      <point x="166" y="653" type="curve" smooth="yes"/>
      <point x="218.385" y="653"/>
      <point x="220" y="600.894"/>
      <point x="220" y="561" type="curve" smooth="yes"/>
      <point x="220" y="428" type="line" smooth="yes"/>
      <point x="220" y="387.072"/>
      <point x="220.49" y="333"/>
    </contour>
    <contour>
      <point x="681" y="-7" type="curve" smooth="yes"/>
      <point x="778.339" y="-7"/>
      <point x="806" y="58.3599"/>
      <point x="806" y="145" type="curve" smooth="yes"/>
      <point x="806" y="287" type="line" smooth="yes"/>
      <point x="806" y="373.27"/>
      <point x="775.911" y="434"/>
      <point x="681" y="434" type="curve" smooth="yes"/>
      <point x="588.086" y="434"/>
      <point x="557" y="370.911"/>
      <point x="557" y="287" type="curve" smooth="yes"/>
      <point x="557" y="145" type="line" smooth="yes"/>
      <point x="557" y="59.2171"/>
      <point x="584.306" y="-7"/>
    </contour>
    <contour>
      <point x="681" y="53" type="curve" smooth="yes"/>
      <point x="626.572" y="53"/>
      <point x="627" y="107.255"/>
      <point x="627" y="148" type="curve" smooth="yes"/>
      <point x="627" y="281" type="line" smooth="yes"/>
      <point x="627" y="321.933"/>
      <point x="626.862" y="373"/>
      <point x="681" y="373" type="curve" smooth="yes"/>
      <point x="733.385" y="373"/>
      <point x="735" y="320.894"/>
      <point x="735" y="281" type="curve" smooth="yes"/>
      <point x="735" y="148" type="line" smooth="yes"/>
      <point x="735" y="107.072"/>
      <point x="735.49" y="53"/>
    </contour>
  </outline>
</glyph>
<glyph name="B" format="2">
  <advance width="628"/>
  <unicode hex="0042"/>
  <anchor x="269" y="773" name="top"/>
  <anchor x="269" y="-86" name="bottom"/>
  <outline>
    <contour>
      <point x="139.82" y="0" type="line"/>
      <point x="347" y="0" type="line" smooth="yes"/>
      <point x="470.858" y="0"/>
      <point x="561" y="62.8457"/>
      <point x="561" y="194" type="curve" smooth="yes"/>
      <point x="561" y="275.874"/>
      <point x="521.334" y="339.925"/>
      <point x="441" y="364" type="curve"/>
      <point x="510.251" y="386.349"/>
      <point x="550" y="448.291"/>
      <point x="550" y="520" type="curve" smooth="yes"/>
      <point x="550" y="648.593"/>
      <point x="461.707" y="707"/>
      <point x="341" y="707" type="curve" smooth="yes"/>
      <point x="139.82" y="707" type="line"/>
      <point x="139.82" y="640" type="line"/>
      <point x="334" y="640" type="line" smooth="yes"/>
      <point x="416.257" y="640"/>
      <point x="475" y="604.724"/>
      <point x="475" y="516" type="curve" smooth="yes"/>
      <point x="475" y="427.711"/>
      <point x="413.807" y="394"/>
      <point x="333" y="394" type="curve" smooth="yes"/>
      <point x="139.82" y="394" type="line"/>
      <point x="139.82" y="328" type="line"/>
      <point x="339" y="328" type="line" smooth="yes"/>
      <point x="424.406" y="328"/>
      <point x="486" y="290.986"/>
      <point x="486" y="199" type="curve" smooth="yes"/>
      <point x="486" y="105.442"/>
      <point x="425.105" y="67"/>
      <point x="338" y="67" type="curve" smooth="yes"/>
      <point x="139.82" y="67" type="line"/>
    </contour>
    <contour>
      <point x="82" y="0" type="line"/>
      <point x="157" y="-0.0372" type="line"/>
      <point x="157" y="707.304" type="line"/>
      <point x="82" y="707" type="line"/>
    </contour>
  </outline>
  <guideline angle="0" name="horizontal" x="0" y="707"/>
  <guideline angle="90" name="h1" x="269" y="0"/>
</glyph>
<glyph name="M" format="2">
  <advance width="771"/>
  <unicode hex="004D"/>
  <anchor x="386" y="773" name="top"/>
  <anchor x="236" y="-86" name="bottom"/>
  <outline>
    <contour>
      <point x="82" y="0" type="line"/>
      <point x="157" y="0" type="line"/>
      <point x="157" y="553" type="line"/>
      <point x="357" y="141" type="line"/>
      <point x="415" y="141" type="line"/>
      <point x="614" y="553" type="line"/>
      <point x="614" y="0" type="line"/>
      <point x="689" y="0" type="line"/>
      <point x="689" y="707" type="line"/>
      <point x="614" y="707" type="line"/>
      <point x="386" y="230" type="line"/>
      <point x="157" y="707" type="line"/>
      <point x="82" y="707" type="line"/>
    </contour>
  </outline>
  <guideline angle="90" name="h1" x="386" y="0"/>
</glyph>
<glyph name="Q" format="2">
  <advance width="624"/>
  <unicode hex="0051"/>
  <anchor x="312" y="773" name="top"/>
  <anchor x="236" y="-86" name="bottom"/>
  <outline>
    <contour>
      <point x="312" y="-8" type="curve" smooth="yes"/>
      <point x="472.107" y="-8"/>
      <point x="557" y="85.5551"/>
      <point x="557" y="262" type="curve" smooth="yes"/>
      <point x="557" y="445" type="line" smooth="yes"/>
      <point x="557" y="621.822"/>
      <point x="472.205" y="716"/>
      <point x="313" y="716" type="curve" smooth="yes"/>
      <point x="152.773" y="716"/>
      <point x="68" y="622.231"/>
      <point x="68" y="445" type="curve" smooth="yes"/>
      <point x="68" y="262" type="line" smooth="yes"/>
      <point x="68" y="85.8824"/>
      <point x="152.842" y="-8"/>
    </contour>
    <contour>
      <point x="313" y="60" type="curve" smooth="yes"/>
      <point x="199.375" y="60"/>
      <point x="142" y="126.435"/>
      <point x="142" y="258" type="curve" smooth="yes"/>
      <point x="142" y="442" type="line" smooth="yes"/>
      <point x="142" y="582.7"/>
      <point x="196.205" y="648"/>
      <point x="313" y="648" type="curve" smooth="yes"/>
      <point x="424.959" y="648"/>
      <point x="482" y="578.47"/>
      <point x="482" y="442" type="curve" smooth="yes"/>
      <point x="482" y="258" type="line" smooth="yes"/>
      <point x="482" y="126.421"/>
      <point x="425.307" y="60"/>
    </contour>
    <contour>
      <point x="461" y="-155" type="line"/>
      <point x="519" y="-122" type="line"/>
      <point x="434.678" y="33.5026" type="line"/>
      <point x="370.676" y="11.5013" type="line"/>
    </contour>
  </outline>
  <guideline angle="90" name="h1" x="312" y="0"/>
</glyph>
<glyph name="Y" format="2">
  <advance width="510"/>
  <unicode hex="0059"/>
  <anchor x="255" y="773" name="top"/>
  <anchor x="255" y="-86" name="bottom"/>
  <outline>
    <contour>
      <point x="218" y="0" type="line"/>
      <point x="293" y="0" type="line"/>
      <point x="293" y="296" type="line"/>
      <point x="504" y="707" type="line"/>
      <point x="423" y="707" type="line"/>
      <point x="255" y="368" type="line"/>
      <point x="88" y="707" type="line"/>
      <point x="7" y="707" type="line"/>
      <point x="218" y="297" type="line"/>
    </contour>
  </outline>
  <guideline angle="90" name="h1" x="255" y="0"/>
</glyph>
<glyph name="grave" format="2">
  <advance width="512"/>
  <unicode hex="0060"/>
  <outline>
    <contour>
      <point x="274" y="586" type="line"/>
      <point x="339" y="586" type="line"/>
      <point x="238" y="714" type="line"/>
      <point x="152" y="714" type="line"/>
    </contour>
  </outline>
</glyph>
<glyph name="h" format="2">
  <advance width="534"/>
  <unicode hex="0068"/>
  <anchor x="280" y="773" name="top"/>
  <anchor x="280" y="-86" name="bottom"/>
  <outline>
    <contour>
      <point x="77" y="0" type="line"/>
      <point x="146" y="0" type="line"/>
      <point x="146" y="331" type="line" smooth="yes"/>
      <point x="146" y="407.265"/>
      <point x="188.148" y="463"/>
      <point x="268" y="463" type="curve" smooth="yes"/>
      <point x="349.599" y="463"/>
      <point x="388" y="408.127"/>
      <point x="388" y="331" type="curve" smooth="yes"/>
      <point x="388" y="0" type="line"/>
      <point x="458" y="0" type="line"/>
      <point x="458" y="341" type="line" smooth="yes"/>
      <point x="458" y="450.147"/>
      <point x="399.562" y="525"/>
      <point x="286" y="525" type="curve" smooth="yes"/>
      <point x="229.809" y="525"/>
      <point x="178.05" y="503.645"/>
      <point x="146" y="456" type="curve"/>
      <point x="146" y="707" type="line"/>
      <point x="77" y="707" type="line"/>
    </contour>
  </outline>
  <guideline angle="90" name="h1" x="280" y="0"/>
</glyph>
<glyph name="u" format="2">
  <advance width="534"/>
  <unicode hex="0075"/>
  <anchor x="268" y="586" name="top"/>
  <anchor x="268" y="-86" name="bottom"/>
  <anchor x="311" y="0" name="b.cedilla"/>
  <outline>
    <contour>
      <point x="77" y="519" type="line"/>
      <point x="77" y="190" type="line" smooth="yes"/>
      <point x="77" y="66.7131"/>
      <point x="139.98" y="-6"/>
      <point x="266" y="-6" type="curve" smooth="yes"/>
      <point x="392.2" y="-6"/>
      <point x="458" y="65.3584"/>
      <point x="458" y="190" type="curve" smooth="yes"/>
      <point x="458" y="519" type="line"/>
      <point x="388" y="519" type="line"/>
      <point x="388" y="200" type="line" smooth="yes"/>
      <point x="388" y="116.518"/>
      <point x="359.789" y="56"/>
      <point x="267" y="56" type="curve" smooth="yes"/>
      <point x="175.289" y="56"/>
      <point x="146" y="117.431"/>
      <point x="146" y="200" type="curve" smooth="yes"/>
      <point x="146" y="519" type="line"/>
    </contour>
  </outline>
  <guideline angle="90" name="h1" x="268" y="0"/>
</glyph>
<glyph name="z" format="2">
  <advance width="466"/>
  <unicode hex="007A"/>
  <anchor x="228" y="586" name="top"/>
  <anchor x="228" y="-86" name="bottom"/>
  <outline>
    <contour>
      <point x="60" y="0" type="line"/>
      <point x="407" y="0" type="line"/>
      <point x="407" y="65" type="line"/>
      <point x="138" y="65" type="line"/>
      <point x="407" y="455" type="line"/>
      <point x="407" y="519" type="line"/>
      <point x="60" y="519" type="line"/>
      <point x="60" y="455" type="line"/>
      <point x="327" y="455" type="line"/>
      <point x="60" y="65" type="line"/>
    </contour>
  </outline>
  <guideline angle="90" name="h1" x="228" y="0"/>
</glyph>
<glyph name="dieresis" format="2">
  <advance width="512"/>
  <unicode hex="00A8"/>
  <outline>
    <contour>
      <point x="129" y="592" type="line"/>
      <point x="207" y="592" type="line"/>
      <point x="207" y="680" type="line"/>
      <point x="129" y="680" type="line"/>
    </contour>
    <contour>
      <point x="304" y="592" type="line"/>
      <point x="382" y="592" type="line"/>
      <point x="382" y="680" type="line"/>
      <point x="304" y="680" type="line"/>
    </contour>
  </outline>
  <guideline angle="0" x="0" y="592"/>
</glyph>
<glyph name="copyright" format="2">
  <advance width="840"/>
  <unicode hex="00A9"/>
  <outline>
    <contour>
      <point x="420" y="-10" type="curve" smooth="yes"/>
      <point x="630" y="-10"/>
      <point x="773" y="135"/>
      <point x="773" y="348" type="curve" smooth="yes"/>
      <point x="773" y="560"/>
      <point x="629" y="707"/>
      <point x="420" y="707" type="curve" smooth="yes"/>
      <point x="212" y="707"/>
      <point x="68" y="560"/>
      <point x="68" y="348" type="curve" smooth="yes"/>
      <point x="68" y="136"/>
      <point x="211" y="-10"/>
    </contour>
    <contour>
      <point x="420" y="44" type="curve" smooth="yes"/>
      <point x="242" y="44"/>
      <point x="126" y="164"/>
      <point x="126" y="348" type="curve" smooth="yes"/>
      <point x="126" y="532"/>
      <point x="242" y="652"/>
      <point x="420" y="652" type="curve" smooth="yes"/>
      <point x="598" y="652"/>
      <point x="715" y="531"/>
      <point x="715" y="348" type="curve" smooth="yes"/>
      <point x="715" y="165"/>
      <point x="598" y="44"/>
    </contour>
    <contour>
      <point x="514" y="286" type="line"/>
      <point x="514" y="282" type="line" smooth="yes"/>
      <point x="514" y="231"/>
      <point x="482" y="201"/>
      <point x="426" y="201" type="curve" smooth="yes"/>
      <point x="358" y="201"/>
      <point x="328" y="235"/>
      <point x="328" y="314" type="curve" smooth="yes"/>
      <point x="328" y="387" type="line" smooth="yes"/>
      <point x="328" y="466"/>
      <point x="358" y="500"/>
      <point x="426" y="500" type="curve" smooth="yes"/>
      <point x="481" y="500"/>
      <point x="514" y="471"/>
      <point x="514" y="422" type="curve" smooth="yes"/>
      <point x="514" y="416" type="line"/>
      <point x="567" y="416" type="line"/>
      <point x="567" y="421" type="line" smooth="yes"/>
      <point x="567" y="502"/>
      <point x="514" y="550"/>
      <point x="424" y="550" type="curve" smooth="yes"/>
      <point x="324" y="550"/>
      <point x="272" y="495"/>
      <point x="272" y="390" type="curve" smooth="yes"/>
      <point x="272" y="311" type="line" smooth="yes"/>
      <point x="272" y="205"/>
      <point x="323" y="152"/>
      <point x="424" y="152" type="curve" smooth="yes"/>
      <point x="513" y="152"/>
      <point x="567" y="201"/>
      <point x="567" y="281" type="curve" smooth="yes"/>
      <point x="567" y="286" type="line"/>
    </contour>
  </outline>
</glyph>
<glyph name="AE" format="2">
  <advance width="886"/>
  <unicode hex="00C6"/>
  <anchor x="489" y="773" name="top"/>
  <outline>
    <contour>
      <point x="7" y="0" type="line"/>
      <point x="88" y="0" type="line"/>
      <point x="182" y="175" type="line"/>
      <point x="435" y="175" type="line"/>
      <point x="435" y="0" type="line"/>
      <point x="838" y="0" type="line"/>
      <point x="838" y="68" type="line"/>
      <point x="510" y="68" type="line"/>
      <point x="510" y="326" type="line"/>
      <point x="785" y="326" type="line"/>
      <point x="785" y="393" type="line"/>
      <point x="510" y="393" type="line"/>
      <point x="510" y="639" type="line"/>
      <point x="838" y="639" type="line"/>
      <point x="838" y="707" type="line"/>
      <point x="391" y="707" type="line"/>
    </contour>
    <contour>
      <point x="217" y="239" type="line"/>
      <point x="435" y="642" type="line"/>
      <point x="435" y="239" type="line"/>
    </contour>
  </outline>
  <guideline angle="90" name="h1" x="489" y="0"/>
</glyph>
<glyph name="divide" format="2">
  <advance width="524"/>
  <unicode hex="00F7"/>
  <outline>
    <contour>
      <point x="262" y="379" type="curve" smooth="yes"/>
      <point x="290.261" y="379"/>
      <point x="311" y="399.739"/>
      <point x="311" y="428" type="curve" smooth="yes"/>
      <point x="311" y="456.261"/>
      <point x="290.261" y="477"/>
      <point x="262" y="477" type="curve" smooth="yes"/>
      <point x="233.739" y="477"/>
      <point x="213" y="456.261"/>
      <point x="213" y="428" type="curve" smooth="yes"/>
      <point x="213" y="399.739"/>
      <point x="233.739" y="379"/>
    </contour>
    <contour>
      <point x="58" y="249" type="line"/>
      <point x="466" y="249" type="line"/>
      <point x="466" y="316" type="line"/>
      <point x="58" y="316" type="line"/>
    </contour>
    <contour>
      <point x="262" y="90" type="curve" smooth="yes"/>
      <point x="290.261" y="90"/>
      <point x="311" y="110.739"/>
      <point x="311" y="139" type="curve" smooth="yes"/>
      <point x="311" y="167.261"/>
      <point x="290.261" y="188"/>
      <point x="262" y="188" type="curve" smooth="yes"/>
      <point x="233.739" y="188"/>
      <point x="213" y="167.261"/>
      <point x="213" y="139" type="curve" smooth="yes"/>
      <point x="213" y="110.739"/>
      <point x="233.739" y="90"/>
    </contour>
  </outline>
</glyph>
<glyph name="thorn" format="2">
  <advance width="522"/>
  <unicode hex="00FE"/>
  <outline>
    <contour>
      <point x="77" y="-156" type="line"/>
      <point x="146" y="-156" type="line"/>
      <point x="146" y="69" type="line"/>
      <point x="176.708" y="15.9861"/>
      <point x="227.191" y="-6"/>
      <point x="287" y="-6" type="curve" smooth="yes"/>
      <point x="415.143" y="-6"/>
      <point x="462" y="93.4621"/>
      <point x="462" y="207" type="curve" smooth="yes"/>
      <point x="462" y="313" type="line" smooth="yes"/>
      <point x="462" y="431.14"/>
      <point x="413.38" y="526"/>
      <point x="282" y="526" type="curve" smooth="yes"/>
      <point x="221.658" y="526"/>
      <point x="174.806" y="499.54"/>
      <point x="146" y="446" type="curve"/>
      <point x="146" y="707" type="line"/>
      <point x="77" y="707" type="line"/>
    </contour>
    <contour>
      <point x="276" y="56" type="curve" smooth="yes"/>
      <point x="185.813" y="56"/>
      <point x="146" y="130.561"/>
      <point x="146" y="212" type="curve" smooth="yes"/>
      <point x="146" y="303" type="line" smooth="yes"/>
      <point x="146" y="384.383"/>
      <point x="178.71" y="463"/>
      <point x="272" y="463" type="curve" smooth="yes"/>
      <point x="365.819" y="463"/>
      <point x="392" y="391.045"/>
      <point x="392" y="309" type="curve" smooth="yes"/>
      <point x="392" y="211" type="line" smooth="yes"/>
      <point x="392" y="131.65"/>
      <point x="368.633" y="56"/>
    </contour>
  </outline>
</glyph>
<glyph name="gcommaaccent" format="2">
  <advance width="523"/>
  <unicode hex="0123"/>
  <outline>
    <component base="g"/>
    <contour>
      <point x="220" y="574" type="line"/>
      <point x="284" y="574" type="line"/>
      <point x="284" y="707" type="line"/>
      <point x="220" y="645" type="line"/>
    </contour>
  </outline>
</glyph>
<glyph name="eng" format="2">
  <advance width="534"/>
  <unicode hex="014B"/>
  <outline>
    <contour>
      <point x="77" y="0" type="line"/>
      <point x="146" y="0" type="line"/>
      <point x="146" y="331" type="line" smooth="yes"/>
      <point x="146" y="407.49"/>
      <point x="187.8" y="463"/>
      <point x="268" y="463" type="curve" smooth="yes"/>
      <point x="350.03" y="463"/>
      <point x="388" y="408.36"/>
      <point x="388" y="331" type="curve" smooth="yes"/>
      <point x="388" y="0" type="line" smooth="yes"/>
      <point x="388" y="-86.2877"/>
      <point x="365.147" y="-109.923"/>
      <point x="294.658" y="-109.923" type="curve" smooth="yes"/>
      <point x="283" y="-109.923" type="line"/>
      <point x="283" y="-173" type="line"/>
      <point x="332" y="-173" type="line" smooth="yes"/>
      <point x="419.83" y="-173"/>
      <point x="459" y="-116.44"/>
      <point x="459" y="0" type="curve" smooth="yes"/>
      <point x="459" y="341" type="line" smooth="yes"/>
      <point x="459" y="451.58"/>
      <point x="400.49" y="525"/>
      <point x="286" y="525" type="curve" smooth="yes"/>
      <point x="228.88" y="525"/>
      <point x="177.14" y="505.29"/>
      <point x="145" y="456" type="curve"/>
      <point x="145" y="519" type="line"/>
      <point x="77" y="519" type="line"/>
    </contour>
  </outline>
</glyph>
<glyph name="Tbar" format="2">
  <advance width="493"/>
  <unicode hex="0166"/>
  <outline>
    <component base="T"/>
    <contour>
      <point x="113" y="314" type="line"/>
      <point x="379" y="314" type="line"/>
      <point x="379" y="378" type="line"/>
      <point x="113" y="378" type="line"/>
    </contour>
  </outline>
</glyph>
<glyph name="Schwa" format="2">
  <advance width="617"/>
  <unicode hex="018F"/>
  <outline>
    <contour>
      <point x="135.931" y="496" type="line"/>
      <point x="135.931" y="501.231" type="line" smooth="yes"/>
      <point x="135.931" y="598.35"/>
      <point x="207.466" y="648"/>
      <point x="300.927" y="648" type="curve" smooth="yes"/>
      <point x="428.343" y="648"/>
      <point x="475.927" y="568.202"/>
      <point x="475.927" y="450" type="curve" smooth="yes"/>
      <point x="475.927" y="266" type="line" smooth="yes"/>
      <point x="475.927" y="146.176"/>
      <point x="434.71" y="60"/>
      <point x="301.927" y="60" type="curve" smooth="yes"/>
      <point x="197.599" y="60"/>
      <point x="135.973" y="131.355"/>
      <point x="135.973" y="252.154" type="curve" smooth="yes"/>
      <point x="135.973" y="380.297" type="line"/>
      <point x="61" y="380.297" type="line"/>
      <point x="61" y="250.784" type="line" smooth="yes"/>
      <point x="61" y="85.1522"/>
      <point x="144.256" y="-8"/>
      <point x="301.927" y="-8" type="curve" smooth="yes"/>
      <point x="474.907" y="-8"/>
      <point x="549.927" y="99.0174"/>
      <point x="549.927" y="263" type="curve" smooth="yes"/>
      <point x="549.927" y="446" type="line" smooth="yes"/>
      <point x="549.927" y="609.776"/>
      <point x="474.304" y="716"/>
      <point x="301.927" y="716" type="curve" smooth="yes"/>
      <point x="167.855" y="716"/>
      <point x="62.9274" y="642.14"/>
      <point x="62.9274" y="500" type="curve" smooth="yes"/>
      <point x="62.9274" y="496" type="line"/>
    </contour>
    <contour>
      <point x="84.3705" y="380.286" type="line"/>
      <point x="84.3705" y="313.286" type="line"/>
      <point x="491.003" y="313.286" type="line"/>
      <point x="491.003" y="380.286" type="line"/>
    </contour>
  </outline>
</glyph>
<glyph name="florin" format="2">
  <advance width="415"/>
  <unicode hex="0192"/>
  <outline>
    <contour>
      <point x="13" y="-155.884" type="line"/>
      <point x="31.5465" y="-155.884" type="line" smooth="yes"/>
      <point x="143.111" y="-155.884"/>
      <point x="182.496" y="-119.905"/>
      <point x="200" y="-2" type="curve" smooth="yes"/>
      <point x="253" y="355" type="line"/>
      <point x="371" y="355" type="line"/>
      <point x="371" y="420" type="line"/>
      <point x="263" y="420" type="line"/>
      <point x="285" y="556" type="line" smooth="yes"/>
      <point x="295.66" y="621.899"/>
      <point x="316.858" y="638.979"/>
      <point x="387.982" y="638.979" type="curve" smooth="yes"/>
      <point x="402" y="638.979" type="line"/>
      <point x="402" y="707" type="line"/>
      <point x="370" y="707" type="line" smooth="yes"/>
      <point x="265.637" y="707"/>
      <point x="227.068" y="651.778"/>
      <point x="212" y="555" type="curve" smooth="yes"/>
      <point x="191" y="420" type="line"/>
      <point x="94" y="420" type="line"/>
      <point x="94" y="355" type="line"/>
      <point x="181" y="355" type="line"/>
      <point x="128" y="-4" type="line" smooth="yes"/>
      <point x="116.82" y="-79.7299"/>
      <point x="92.9595" y="-87.9657"/>
      <point x="29.2579" y="-87.9657" type="curve" smooth="yes"/>
      <point x="13" y="-87.9657" type="line"/>
    </contour>
  </outline>
</glyph>
<glyph name="kcaron" format="2">
  <advance width="505"/>
  <unicode hex="01E9"/>
  <outline>
    <contour>
      <point x="77" y="0" type="line"/>
      <point x="146" y="0" type="line"/>
      <point x="146" y="155" type="line"/>
      <point x="244" y="269" type="line"/>
      <point x="401" y="0" type="line"/>
      <point x="486" y="0" type="line"/>
      <point x="290" y="323" type="line"/>
      <point x="457" y="519" type="line"/>
      <point x="373" y="519" type="line"/>
      <point x="146" y="243" type="line"/>
      <point x="146" y="707" type="line"/>
      <point x="77" y="707" type="line"/>
    </contour>
    <contour>
      <point x="84" y="764" type="line"/>
      <point x="141" y="764" type="line"/>
      <point x="250" y="911" type="line"/>
      <point x="187" y="911" type="line"/>
      <point x="113" y="814" type="line"/>
      <point x="38" y="911" type="line"/>
      <point x="-25" y="911" type="line"/>
    </contour>
  </outline>
</glyph>
<glyph name="breve" format="2">
  <advance width="512"/>
  <unicode hex="02D8"/>
  <outline>
    <contour>
      <point x="128" y="722" type="line"/>
      <point x="128" y="704" type="line" smooth="yes"/>
      <point x="128" y="621.985"/>
      <point x="170.319" y="570"/>
      <point x="255" y="570" type="curve" smooth="yes"/>
      <point x="339.681" y="570"/>
      <point x="382" y="621.985"/>
      <point x="382" y="704" type="curve" smooth="yes"/>
      <point x="382" y="722" type="line"/>
      <point x="316.002" y="722" type="line"/>
      <point x="316.002" y="717.652" type="line" smooth="yes"/>
      <point x="316.002" y="670.944"/>
      <point x="309.383" y="630"/>
      <point x="255" y="630" type="curve" smooth="yes"/>
      <point x="199.335" y="630"/>
      <point x="193.853" y="672.753"/>
      <point x="193.987" y="717.652" type="curve" smooth="yes"/>
      <point x="194" y="722" type="line"/>
    </contour>
  </outline>
</glyph>
<glyph name="uni0312" format="2">
  <unicode hex="0312"/>
  <anchor x="0" y="519" name="_top"/>
  <outline>
    <contour>
      <point x="-77" y="586" type="line"/>
      <point x="9" y="586" type="line"/>
      <point x="111" y="714" type="line"/>
      <point x="46" y="714" type="line"/>
    </contour>
  </outline>
</glyph>
<glyph name="alpha" format="2">
  <advance width="644"/>
  <unicode hex="03B1"/>
  <outline>
    <contour>
      <point x="588" y="76" type="line"/>
      <point x="499.03" y="76"/>
      <point x="473" y="135.569"/>
      <point x="473" y="216" type="curve" smooth="yes"/>
      <point x="473" y="304" type="line" smooth="yes"/>
      <point x="473" y="385.085"/>
      <point x="498.719" y="443"/>
      <point x="588" y="443" type="curve"/>
      <point x="588" y="505" type="line"/>
      <point x="524.105" y="505"/>
      <point x="471.406" y="484.81"/>
      <point x="434" y="431" type="curve"/>
      <point x="402.088" y="499.041"/>
      <point x="331.376" y="526"/>
      <point x="260" y="526" type="curve" smooth="yes"/>
      <point x="123.43" y="526"/>
      <point x="60" y="443.91"/>
      <point x="60" y="313" type="curve" smooth="yes"/>
      <point x="60" y="207" type="line" smooth="yes"/>
      <point x="60" y="76.0897"/>
      <point x="123.43" y="-6"/>
      <point x="260" y="-6" type="curve" smooth="yes"/>
      <point x="331.376" y="-6"/>
      <point x="402.088" y="20.9592"/>
      <point x="434" y="89" type="curve"/>
      <point x="471.406" y="35.1902"/>
      <point x="524.105" y="15"/>
      <point x="588" y="15" type="curve"/>
    </contour>
    <contour>
      <point x="260" y="56" type="curve" smooth="yes"/>
      <point x="160.443" y="56"/>
      <point x="130" y="121.762"/>
      <point x="130" y="211" type="curve" smooth="yes"/>
      <point x="130" y="309" type="line" smooth="yes"/>
      <point x="130" y="399.236"/>
      <point x="159.954" y="463"/>
      <point x="260" y="463" type="curve" smooth="yes"/>
      <point x="351.36" y="463"/>
      <point x="397" y="394.949"/>
      <point x="397" y="309" type="curve" smooth="yes"/>
      <point x="397" y="211" type="line" smooth="yes"/>
      <point x="397" y="126.004"/>
      <point x="350.852" y="56"/>
    </contour>
  </outline>
</glyph>
<glyph name="Njecyr" format="2">
  <advance width="1005"/>
  <unicode hex="040A"/>
  <outline>
    <component base="H"/>
    <contour>
      <point x="516.82" y="0" type="line"/>
      <point x="716" y="0" type="line" smooth="yes"/>
      <point x="856.459" y="0"/>
      <point x="938" y="77.5002"/>
      <point x="938" y="211" type="curve" smooth="yes"/>
      <point x="938" y="337.315"/>
      <point x="853.461" y="415"/>
      <point x="716" y="415" type="curve" smooth="yes"/>
      <point x="516.82" y="415" type="line"/>
      <point x="516.82" y="348" type="line"/>
      <point x="710" y="348" type="line" smooth="yes"/>
      <point x="809.797" y="348"/>
      <point x="863" y="300.361"/>
      <point x="863" y="211" type="curve" smooth="yes"/>
      <point x="863" y="117.13"/>
      <point x="810.561" y="68.1187"/>
      <point x="710" y="68" type="curve" smooth="yes"/>
      <point x="516.82" y="67.772" type="line"/>
    </contour>
  </outline>
</glyph>
<glyph name="Tshecyr" format="2">
  <advance width="745"/>
  <unicode hex="040B"/>
  <outline>
    <contour>
      <point x="210" y="0" type="line"/>
      <point x="284" y="0" type="line"/>
      <point x="284" y="639" type="line"/>
      <point x="485" y="639" type="line"/>
      <point x="485" y="707" type="line"/>
      <point x="8" y="707" type="line"/>
      <point x="8" y="639" type="line"/>
      <point x="210" y="639" type="line"/>
    </contour>
    <contour>
      <point x="678" y="0" type="line"/>
      <point x="678" y="211" type="line" smooth="yes"/>
      <point x="678" y="337.315"/>
      <point x="593.461" y="435"/>
      <point x="456" y="435" type="curve" smooth="yes"/>
      <point x="399.29" y="435"/>
      <point x="340.861" y="430"/>
      <point x="284.15" y="415" type="curve"/>
      <point x="256.82" y="415" type="line"/>
      <point x="256.82" y="348" type="line"/>
      <point x="284.15" y="348" type="line"/>
      <point x="338.881" y="363"/>
      <point x="395.27" y="368"/>
      <point x="450" y="368" type="curve" smooth="yes"/>
      <point x="549.797" y="368"/>
      <point x="603" y="300.361"/>
      <point x="603" y="211" type="curve" smooth="yes"/>
      <point x="603" y="-0.322815" type="line"/>
    </contour>
  </outline>
</glyph>
<glyph name="Kacyr" format="2">
  <advance width="612"/>
  <unicode hex="041A"/>
  <anchor x="285" y="773" name="top"/>
  <outline>
    <contour>
      <point x="136.64" y="328" type="line"/>
      <point x="304.702" y="328" type="line"/>
      <point x="304.702" y="395" type="line"/>
      <point x="136.64" y="395" type="line"/>
    </contour>
    <contour>
      <point x="82" y="0" type="line"/>
      <point x="157" y="0" type="line"/>
      <point x="157" y="707" type="line"/>
      <point x="82" y="707" type="line"/>
    </contour>
    <contour>
      <point x="517" y="0" type="line"/>
      <point x="604" y="0" type="line"/>
      <point x="304.702" y="395" type="line"/>
      <point x="256.826" y="337.073" type="line"/>
    </contour>
    <contour>
      <point x="212.639" y="339.318" type="line"/>
      <point x="273.932" y="339.263" type="line"/>
      <point x="572" y="707" type="line"/>
      <point x="483" y="707" type="line"/>
      <point x="212.639" y="365.317" type="line"/>
    </contour>
  </outline>
  <guideline angle="0" name="horizontal" x="0" y="707"/>
  <guideline angle="90" name="h1" x="285" y="0"/>
</glyph>
<glyph name="Ucyr" format="2">
  <advance width="511"/>
  <unicode hex="0423"/>
  <anchor x="248" y="773" name="top"/>
  <outline>
    <contour>
      <point x="92.2778" y="-8" type="line"/>
      <point x="121.721" y="-8" type="line" smooth="yes"/>
      <point x="171.13" y="-8"/>
      <point x="222.415" y="34.1912"/>
      <point x="248.36" y="96.1835" type="curve" smooth="yes"/>
      <point x="504" y="707" type="line"/>
      <point x="423" y="707" type="line"/>
      <point x="227.995" y="241.026" type="line"/>
      <point x="231.027" y="241.026" type="line"/>
      <point x="192.257" y="139.721" type="line" smooth="yes"/>
      <point x="173.337" y="90.2822"/>
      <point x="143.943" y="63.049"/>
      <point x="108.731" y="62.3341" type="curve" smooth="yes"/>
      <point x="92.2778" y="62" type="line"/>
    </contour>
    <contour>
      <point x="209.723" y="176.768" type="line"/>
      <point x="255.5" y="261.88" type="line"/>
      <point x="88" y="707" type="line"/>
      <point x="7" y="707" type="line"/>
    </contour>
  </outline>
  <guideline angle="90" name="h1" x="248" y="0"/>
</glyph>
<glyph name="Efcyr" format="2">
  <advance width="676"/>
  <unicode hex="0424"/>
  <anchor x="338" y="773" name="top"/>
  <outline>
    <contour>
      <point x="311" y="140" type="line"/>
      <point x="199" y="140"/>
      <point x="142" y="208"/>
      <point x="142" y="338" type="curve" smooth="yes"/>
      <point x="142" y="382" type="line" smooth="yes"/>
      <point x="142" y="520"/>
      <point x="199" y="588"/>
      <point x="311" y="588" type="curve"/>
      <point x="311" y="656" type="line"/>
      <point x="153" y="656"/>
      <point x="68" y="560"/>
      <point x="68" y="385" type="curve" smooth="yes"/>
      <point x="68" y="342" type="line" smooth="yes"/>
      <point x="68" y="168"/>
      <point x="154" y="72"/>
      <point x="311" y="72" type="curve"/>
    </contour>
    <contour>
      <point x="301" y="0" type="line"/>
      <point x="376" y="0" type="line"/>
      <point x="376" y="707" type="line"/>
      <point x="301" y="707" type="line"/>
    </contour>
    <contour>
      <point x="366" y="72" type="line"/>
      <point x="524" y="72"/>
      <point x="609" y="168"/>
      <point x="609" y="343" type="curve" smooth="yes"/>
      <point x="609" y="386" type="line" smooth="yes"/>
      <point x="609" y="560"/>
      <point x="523" y="656"/>
      <point x="366" y="656" type="curve"/>
      <point x="366" y="588" type="line"/>
      <point x="478" y="588"/>
      <point x="535" y="520"/>
      <point x="535" y="390" type="curve" smooth="yes"/>
      <point x="535" y="346" type="line" smooth="yes"/>
      <point x="535" y="208"/>
      <point x="478" y="140"/>
      <point x="366" y="140" type="curve"/>
    </contour>
  </outline>
  <guideline angle="90" name="h1" x="338" y="0"/>
</glyph>
<glyph name="Checyr" format="2">
  <advance width="647"/>
  <unicode hex="0427"/>
  <outline>
    <component base="I" xOffset="400"/>
    <contour>
      <point x="491" y="341.871" type="line"/>
      <point x="453.896" y="306.859"/>
      <point x="395.695" y="290.492"/>
      <point x="324" y="290.492" type="curve" smooth="yes"/>
      <point x="222.499" y="290.492"/>
      <point x="156" y="360.553"/>
      <point x="156" y="467.492" type="curve" smooth="yes"/>
      <point x="156" y="707" type="line"/>
      <point x="80" y="707" type="line"/>
      <point x="80" y="460.492" type="line" smooth="yes"/>
      <point x="80" y="318.023"/>
      <point x="176.701" y="224.492"/>
      <point x="324" y="224.492" type="curve" smooth="yes"/>
      <point x="414.147" y="224.492"/>
      <point x="477.248" y="242.98"/>
      <point x="517.005" y="281.039" type="curve"/>
      <point x="517.005" y="342.285" type="line"/>
    </contour>
  </outline>
</glyph>
<glyph name="Shacyr" format="2">
  <advance width="838"/>
  <unicode hex="0428"/>
  <anchor x="677" y="695" name="top"/>
  <outline>
    <component base="I" xOffset="-7"/>
    <component base="I" xOffset="292"/>
    <component base="I" xOffset="591"/>
    <contour>
      <point x="125" y="0" type="line"/>
      <point x="733" y="0" type="line"/>
      <point x="733" y="67" type="line"/>
      <point x="125" y="67" type="line"/>
    </contour>
  </outline>
  <guideline angle="90" x="82" y="0"/>
  <guideline angle="90" x="158" y="0"/>
  <guideline angle="90" x="381" y="0"/>
  <guideline angle="90" x="457" y="0"/>
  <guideline angle="90" x="687" y="0"/>
  <guideline angle="90" x="763" y="0"/>
  <guideline angle="0" x="0" y="707"/>
</glyph>
<glyph name="gecyr" format="2">
  <advance width="345"/>
  <unicode hex="0433"/>
  <anchor x="213" y="586" name="top"/>
  <outline>
    <contour>
      <point x="319" y="454" type="line"/>
      <point x="319" y="519" type="line"/>
      <point x="77" y="519" type="line"/>
      <point x="77" y="453.53" type="line"/>
    </contour>
    <contour>
      <point x="77" y="0" type="line"/>
      <point x="146" y="0" type="line"/>
      <point x="146" y="519.026" type="line"/>
      <point x="77" y="519" type="line"/>
    </contour>
  </outline>
  <guideline angle="90" name="h1" x="213" y="0"/>
</glyph>
<glyph name="zhecyr" format="2">
  <advance width="777"/>
  <unicode hex="0436"/>
  <anchor x="778" y="519" name="top"/>
  <outline>
    <component base="kacyr" xOffset="277"/>
    <contour>
      <point x="305" y="261" type="line"/>
      <point x="127" y="519" type="line"/>
      <point x="43" y="519" type="line"/>
      <point x="230" y="261" type="line"/>
    </contour>
    <contour>
      <point x="99" y="0" type="line"/>
      <point x="275" y="248" type="line"/>
      <point x="232" y="306" type="line"/>
      <point x="14" y="0" type="line"/>
    </contour>
    <contour>
      <point x="374" y="240" type="line"/>
      <point x="374" y="305" type="line"/>
      <point x="239" y="305" type="line"/>
      <point x="239" y="240" type="line"/>
    </contour>
  </outline>
  <guideline angle="90" name="vertical" x="273" y="0"/>
  <guideline angle="0" name="horizontal" x="0" y="519"/>
  <guideline angle="90" name="vertical" x="778" y="0"/>
  <guideline angle="0" name="horizontal" x="0" y="519"/>
</glyph>
<glyph name="tsecyr" format="2">
  <advance width="519"/>
  <unicode hex="0446"/>
  <outline>
    <contour>
      <point x="389" y="0" type="line"/>
      <point x="459" y="0" type="line"/>
      <point x="459" y="519" type="line"/>
      <point x="389" y="519" type="line"/>
    </contour>
    <contour>
      <point x="77" y="0" type="line"/>
      <point x="147" y="0" type="line"/>
      <point x="147" y="519" type="line"/>
      <point x="77" y="519" type="line"/>
    </contour>
    <contour>
      <point x="127" y="-0.0021" type="line"/>
      <point x="408.998" y="0.4675" type="line"/>
      <point x="408.998" y="65.4675" type="line"/>
      <point x="127" y="65.4675" type="line"/>
    </contour>
    <contour>
      <point x="438.998" y="-170" type="line"/>
      <point x="508.998" y="-170" type="line"/>
      <point x="508.998" y="65.2194" type="line"/>
      <point x="418.998" y="65.2194" type="line"/>
      <point x="418.998" y="-0.0148621" type="line"/>
      <point x="438.998" y="-0.0148621" type="line"/>
    </contour>
  </outline>
</glyph>
<glyph name="ereversedcyr" format="2">
  <advance width="515"/>
  <unicode hex="044D"/>
  <anchor x="251" y="586" name="top"/>
  <outline>
    <component base="c" xScale="-1" xOffset="515"/>
    <contour>
      <point x="216.334" y="246" type="line"/>
      <point x="409" y="246" type="line"/>
      <point x="409" y="311" type="line"/>
      <point x="216.334" y="311" type="line"/>
    </contour>
  </outline>
  <guideline angle="0" name="horizontal" x="0" y="519"/>
  <guideline angle="90" name="h1" x="251" y="0"/>
</glyph>
<glyph name="djecyr" format="2">
  <advance width="492"/>
  <unicode hex="0452"/>
  <anchor x="320.5" y="586" name="top"/>
  <outline>
    <contour>
      <point x="10" y="582" type="line"/>
      <point x="292" y="582" type="line"/>
      <point x="292" y="639" type="line"/>
      <point x="10" y="639" type="line"/>
    </contour>
    <contour>
      <point x="77" y="0" type="line"/>
      <point x="146" y="0" type="line"/>
      <point x="146" y="331" type="line" smooth="yes"/>
      <point x="146" y="407.265"/>
      <point x="188.148" y="463"/>
      <point x="268" y="463" type="curve" smooth="yes"/>
      <point x="349.599" y="463"/>
      <point x="388" y="408.127"/>
      <point x="388" y="331" type="curve" smooth="yes"/>
      <point x="388" y="0" type="line"/>
      <point x="458" y="0" type="line"/>
      <point x="458" y="341" type="line" smooth="yes"/>
      <point x="458" y="450.147"/>
      <point x="399.562" y="525"/>
      <point x="286" y="525" type="curve" smooth="yes"/>
      <point x="229.809" y="525"/>
      <point x="178.05" y="503.645"/>
      <point x="146" y="456" type="curve"/>
      <point x="146" y="707" type="line"/>
      <point x="77" y="707" type="line"/>
    </contour>
    <contour>
      <point x="280.901" y="-156" type="line"/>
      <point x="329.901" y="-156" type="line" smooth="yes"/>
      <point x="418.918" y="-156"/>
      <point x="457.901" y="-104.166"/>
      <point x="457.901" y="-19" type="curve" smooth="yes"/>
      <point x="457.901" y="100.134" type="line"/>
      <point x="387.901" y="100.134" type="line"/>
      <point x="387.901" y="-15" type="line" smooth="yes"/>
      <point x="387.901" y="-75.9902"/>
      <point x="370.046" y="-92.0187"/>
      <point x="298.298" y="-92.0187" type="curve" smooth="yes"/>
      <point x="280.901" y="-92.0187" type="line"/>
    </contour>
  </outline>
  <guideline angle="90" name="vertical" x="111" y="0"/>
  <guideline angle="0" name="horizontal" x="0" y="707"/>
  <guideline angle="90" name="h1" x="320.5" y="0"/>
</glyph>
<glyph name="dzhecyr" format="2">
  <advance width="536"/>
  <unicode hex="045F"/>
  <outline>
    <contour>
      <point x="389" y="0" type="line"/>
      <point x="459" y="0" type="line"/>
      <point x="459" y="519" type="line"/>
      <point x="389" y="519" type="line"/>
    </contour>
    <contour>
      <point x="77" y="0" type="line"/>
      <point x="147" y="0" type="line"/>
      <point x="147" y="519" type="line"/>
      <point x="77" y="519" type="line"/>
    </contour>
    <contour>
      <point x="127" y="-0.0021" type="line"/>
      <point x="408.998" y="0.4675" type="line"/>
      <point x="408.998" y="65.4675" type="line"/>
      <point x="127" y="65.4675" type="line"/>
    </contour>
    <contour>
      <point x="232.864" y="-170" type="line"/>
      <point x="302.864" y="-170" type="line"/>
      <point x="302.864" y="65.2194" type="line"/>
      <point x="232.864" y="65.2194" type="line"/>
    </contour>
  </outline>
</glyph>
<glyph name="fl" format="2">
  <advance width="614"/>
  <unicode hex="FB02"/>
  <outline>
    <component base="f"/>
    <contour>
      <point x="571" y="0" type="line"/>
      <point x="571" y="62" type="line"/>
      <point x="556" y="62" type="line" smooth="yes"/>
      <point x="507.333" y="62"/>
      <point x="483" y="89"/>
      <point x="483" y="143" type="curve" smooth="yes"/>
      <point x="483" y="707" type="line"/>
      <point x="412" y="707" type="line"/>
      <point x="412" y="140" type="line" smooth="yes"/>
      <point x="412" y="49.6998"/>
      <point x="462.41" y="0"/>
      <point x="554" y="0" type="curve" smooth="yes"/>
    </contour>
  </outline>
</glyph>
<glyph name="Nacute.loclPLK" format="2">
  <advance width="678"/>
  <outline>
    <component base="N"/>
    <contour>
      <point x="299" y="773" type="line"/>
      <point x="364" y="773" type="line"/>
      <point x="413" y="901" type="line"/>
      <point x="327" y="901" type="line"/>
    </contour>
  </outline>
</glyph>
<glyph name="Sacute.loclPLK" format="2">
  <advance width="559"/>
  <outline>
    <component base="S"/>
    <contour>
      <point x="240" y="773" type="line"/>
      <point x="305" y="773" type="line"/>
      <point x="354" y="901" type="line"/>
      <point x="268" y="901" type="line"/>
    </contour>
  </outline>
</glyph>
<glyph name="four.osf" format="2">
  <advance width="510"/>
  <outline>
    <contour>
      <point x="50" y="0" type="line"/>
      <point x="315" y="0" type="line"/>
      <point x="315" y="-160" type="line"/>
      <point x="390" y="-160" type="line"/>
      <point x="390" y="0" type="line"/>
      <point x="467" y="0" type="line"/>
      <point x="467" y="68" type="line"/>
      <point x="390" y="68" type="line"/>
      <point x="390" y="260" type="line"/>
      <point x="315" y="260" type="line"/>
      <point x="315" y="68" type="line"/>
      <point x="125" y="68" type="line"/>
      <point x="337" y="529" type="line"/>
      <point x="262" y="529" type="line"/>
      <point x="50" y="68" type="line"/>
    </contour>
  </outline>
</glyph>
<glyph name="four.tlf" format="2">
  <advance width="524"/>
  <outline>
    <contour>
      <point x="59" y="138" type="line"/>
      <point x="324" y="138" type="line"/>
      <point x="324" y="0" type="line"/>
      <point x="399" y="0" type="line"/>
      <point x="399" y="138" type="line"/>
      <point x="476" y="138" type="line"/>
      <point x="476" y="206" type="line"/>
      <point x="399" y="206" type="line"/>
      <point x="399" y="398" type="line"/>
      <point x="324" y="398" type="line"/>
      <point x="324" y="206" type="line"/>
      <point x="134" y="206" type="line"/>
      <point x="346" y="707" type="line"/>
      <point x="271" y="707" type="line"/>
      <point x="59" y="206" type="line"/>
    </contour>
  </outline>
</glyph>
<glyph name="hardcyr.loclBGR" format="2">
  <advance width="589"/>
  <outline>
    <contour>
      <point x="147" y="182.129" type="line"/>
      <point x="217" y="182.129" type="line"/>
      <point x="217" y="519" type="line"/>
      <point x="147" y="519" type="line"/>
    </contour>
    <contour>
      <point x="182" y="454" type="line"/>
      <point x="182" y="519" type="line"/>
      <point x="0" y="519" type="line"/>
      <point x="0" y="453.53" type="line"/>
    </contour>
    <contour>
      <point x="147" y="182.129" type="line"/>
      <point x="147" y="71.2352"/>
      <point x="220.752" y="-6"/>
      <point x="336.237" y="-6" type="curve" smooth="yes"/>
      <point x="475.256" y="-6"/>
      <point x="549" y="79.9903"/>
      <point x="549" y="195.253" type="curve" smooth="yes"/>
      <point x="549" y="316.793"/>
      <point x="467.354" y="387"/>
      <point x="351.024" y="387" type="curve" smooth="yes"/>
      <point x="286.996" y="387"/>
      <point x="241.326" y="371.667"/>
      <point x="197" y="341" type="curve"/>
      <point x="197" y="265.446" type="line"/>
      <point x="240.933" y="299.528"/>
      <point x="285.688" y="322"/>
      <point x="349.071" y="322" type="curve" smooth="yes"/>
      <point x="420.356" y="322"/>
      <point x="470" y="267.4"/>
      <point x="470" y="189" type="curve" smooth="yes"/>
      <point x="470" y="110.952"/>
      <point x="425.846" y="56"/>
      <point x="341.783" y="56" type="curve" smooth="yes"/>
      <point x="263.603" y="56"/>
      <point x="217" y="107.212"/>
      <point x="217" y="182.129" type="curve"/>
    </contour>
  </outline>
</glyph>
<glyph name="three.osf" format="2">
  <advance width="506"/>
  <outline>
    <contour>
      <point x="62.0339" y="23" type="line"/>
      <point x="62.0339" y="16.0552" type="line" smooth="yes"/>
      <point x="62.0339" y="-98.0753"/>
      <point x="128.799" y="-162"/>
      <point x="248" y="-162" type="curve" smooth="yes"/>
      <point x="358.462" y="-162"/>
      <point x="438.902" y="-86.2154"/>
      <point x="438.902" y="17.8535" type="curve" smooth="yes"/>
      <point x="438.902" y="39.5126" type="line" smooth="yes"/>
      <point x="438.902" y="132.748"/>
      <point x="411.526" y="177.376"/>
      <point x="338" y="204" type="curve"/>
      <point x="397.546" y="230.551"/>
      <point x="426.95" y="280.715"/>
      <point x="426.95" y="355.752" type="curve" smooth="yes"/>
      <point x="426.95" y="364" type="line" smooth="yes"/>
      <point x="426.95" y="461.556"/>
      <point x="354.213" y="529"/>
      <point x="249" y="529" type="curve" smooth="yes"/>
      <point x="138.45" y="529"/>
      <point x="71" y="464.581"/>
      <point x="71" y="359" type="curve" smooth="yes"/>
      <point x="71" y="340" type="line"/>
      <point x="142.028" y="340" type="line"/>
      <point x="142.028" y="346.569" type="line" smooth="yes"/>
      <point x="142.028" y="423.209"/>
      <point x="177.304" y="462"/>
      <point x="247" y="462" type="curve" smooth="yes"/>
      <point x="309.926" y="462"/>
      <point x="352.971" y="420.568"/>
      <point x="352.971" y="360" type="curve" smooth="yes"/>
      <point x="352.971" y="353.347" type="line" smooth="yes"/>
      <point x="352.971" y="263.157"/>
      <point x="316.788" y="230.058"/>
      <point x="218.194" y="230.058" type="curve" smooth="yes"/>
      <point x="207" y="230.058" type="line"/>
      <point x="207" y="162.923" type="line"/>
      <point x="218.213" y="162.923" type="line" smooth="yes"/>
      <point x="317.412" y="162.923"/>
      <point x="364.901" y="119.319"/>
      <point x="364.901" y="28.2361" type="curve" smooth="yes"/>
      <point x="364.901" y="17" type="line" smooth="yes"/>
      <point x="364.901" y="-48.8874"/>
      <point x="316.579" y="-96"/>
      <point x="249" y="-96" type="curve" smooth="yes"/>
      <point x="175.919" y="-96"/>
      <point x="137.058" y="-57.531"/>
      <point x="137.058" y="14.8132" type="curve" smooth="yes"/>
      <point x="137.058" y="23" type="line"/>
    </contour>
  </outline>
</glyph>
<glyph name="tsecyr.loclBGR" format="2">
  <advance width="507"/>
  <outline>
    <component base="icyr.loclBGR" xOffset="-1"/>
    <contour>
      <point x="436.998" y="-170" type="line"/>
      <point x="506.998" y="-170" type="line"/>
      <point x="506.998" y="65.2194" type="line"/>
      <point x="416.998" y="65.2194" type="line"/>
      <point x="416.998" y="-0.0148621" type="line"/>
      <point x="436.998" y="-0.0148621" type="line"/>
    </contour>
  </outline>
</glyph>
<glyph name="two.tosf" format="2">
  <advance width="524"/>
  <outline>
    <contour>
      <point x="84" y="0" type="line"/>
      <point x="443" y="0" type="line"/>
      <point x="443" y="67" type="line"/>
      <point x="197" y="67" type="line"/>
      <point x="389" y="249" type="line" smooth="yes"/>
      <point x="424.89" y="283.021"/>
      <point x="442.967" y="318.822"/>
      <point x="442.967" y="363.867" type="curve" smooth="yes"/>
      <point x="442.967" y="369" type="line" smooth="yes"/>
      <point x="442.967" y="457.672"/>
      <point x="363.202" y="529"/>
      <point x="264" y="529" type="curve" smooth="yes"/>
      <point x="164.142" y="529"/>
      <point x="91.7641" y="474.021"/>
      <point x="87.4313" y="394.878" type="curve" smooth="yes"/>
      <point x="87" y="387" type="line"/>
      <point x="162" y="387" type="line"/>
      <point x="162.198" y="394.518" type="line" smooth="yes"/>
      <point x="163.253" y="434.539"/>
      <point x="203.866" y="462"/>
      <point x="262" y="462" type="curve" smooth="yes"/>
      <point x="321.869" y="462"/>
      <point x="366.972" y="420.738"/>
      <point x="366.972" y="366" type="curve" smooth="yes"/>
      <point x="366.972" y="363.097" type="line" smooth="yes"/>
      <point x="366.972" y="336.357"/>
      <point x="350.526" y="308.608"/>
      <point x="322" y="282" type="curve" smooth="yes"/>
      <point x="84" y="60" type="line"/>
    </contour>
  </outline>
  <guideline angle="223.008" x="322" y="282"/>
  <guideline angle="43.4684" x="197" y="67"/>
</glyph>
<glyph name="zero.numr" format="2">
  <advance width="333"/>
  <outline>
    <contour>
      <point x="166" y="274" type="curve" smooth="yes"/>
      <point x="250.11" y="274"/>
      <point x="291" y="323.395"/>
      <point x="291" y="425" type="curve" smooth="yes"/>
      <point x="291" y="568" type="line" smooth="yes"/>
      <point x="291" y="667.297"/>
      <point x="251.015" y="714"/>
      <point x="166" y="714" type="curve" smooth="yes"/>
      <point x="84.349" y="714"/>
      <point x="42" y="664.137"/>
      <point x="42" y="568" type="curve" smooth="yes"/>
      <point x="42" y="425" type="line" smooth="yes"/>
      <point x="42" y="323.896"/>
      <point x="82.9742" y="274"/>
    </contour>
    <contour>
      <point x="166" y="333" type="curve" smooth="yes"/>
      <point x="126.126" y="333"/>
      <point x="112" y="355.235"/>
      <point x="112" y="418" type="curve" smooth="yes"/>
      <point x="112" y="572" type="line" smooth="yes"/>
      <point x="112" y="632.881"/>
      <point x="125.908" y="654"/>
      <point x="166" y="654" type="curve" smooth="yes"/>
      <point x="205.332" y="654"/>
      <point x="220" y="631.727"/>
      <point x="220" y="572" type="curve" smooth="yes"/>
      <point x="220" y="418" type="line" smooth="yes"/>
      <point x="220" y="355.812"/>
      <point x="205.508" y="333"/>
    </contour>
  </outline>
</glyph>
